<?xml version="1.0" encoding="utf-8"?>
<!-- Generator: Adobe Illustrator 23.0.3, SVG Export Plug-In . SVG Version: 6.00 Build 0)  -->
<svg version="1.1" xmlns="http://www.w3.org/2000/svg" xmlns:xlink="http://www.w3.org/1999/xlink" x="0px" y="0px"
	 viewBox="0 0 43.6 40.5" style="enable-background:new 0 0 43.6 40.5;" xml:space="preserve">
<style type="text/css">
	.st0{fill:#E93632;}
	.st1{fill:#363638;}
	.st2{fill:#16ACA8;}
	.st3{fill:#B1CF38;}
	.st4{fill:#EC3F38;}
	.st5{fill:#692C90;}
	.st6{fill:#F1592B;}
	.st7{fill:#202126;}
	.st8{fill:url(#SVGID_1_);}
	.st9{fill:#273042;}
	.st10{fill:none;stroke:url(#SVGID_4_);stroke-miterlimit:10;}
	.st11{fill:#FFFFFF;}
	.st12{clip-path:url(#SVGID_6_);}
	.st13{fill:none;stroke:#202126;stroke-miterlimit:10;}
	.st14{fill:none;stroke:url(#SVGID_17_);stroke-width:2;stroke-miterlimit:10;}
	.st15{fill:none;}
	.st16{fill:#212021;}
	.st17{fill:none;stroke:#FFFFFF;stroke-miterlimit:10;}
	.st18{fill:#B0CE37;}
	.st19{clip-path:url(#SVGID_19_);fill:#FFFFFF;}
	.st20{clip-path:url(#SVGID_19_);fill:none;stroke:#000000;stroke-miterlimit:10;}
	.st21{clip-path:url(#SVGID_21_);fill:none;stroke:#000000;stroke-miterlimit:10;}
	.st22{clip-path:url(#SVGID_21_);fill:none;stroke:#FFFFFF;stroke-miterlimit:10;}
	.st23{clip-path:url(#SVGID_21_);fill:#FFFFFF;stroke:#000000;stroke-miterlimit:10;}
	.st24{clip-path:url(#SVGID_21_);fill:#FFFFFF;stroke:#FFFFFF;stroke-miterlimit:10;}
	.st25{clip-path:url(#SVGID_23_);fill:none;stroke:#000000;stroke-miterlimit:10;}
	.st26{clip-path:url(#SVGID_23_);fill:none;stroke:#FFFFFF;stroke-miterlimit:10;}
	.st27{clip-path:url(#SVGID_23_);fill:#FFFFFF;stroke:#000000;stroke-miterlimit:10;}
	.st28{clip-path:url(#SVGID_23_);fill:#FFFFFF;stroke:#FFFFFF;stroke-miterlimit:10;}
	.st29{clip-path:url(#SVGID_25_);fill:none;stroke:#000000;stroke-miterlimit:10;}
	.st30{clip-path:url(#SVGID_25_);fill:none;stroke:#FFFFFF;stroke-miterlimit:10;}
	.st31{clip-path:url(#SVGID_27_);fill:none;stroke:#000000;stroke-miterlimit:10;}
	.st32{clip-path:url(#SVGID_27_);fill:none;stroke:#5DBF8D;stroke-miterlimit:10;}
	.st33{clip-path:url(#SVGID_27_);fill:none;}
	.st34{clip-path:url(#SVGID_29_);}
	.st35{clip-path:url(#SVGID_29_);fill:none;stroke:#5DBF8D;stroke-miterlimit:10;}
	.st36{clip-path:url(#SVGID_31_);fill:#FFFFFF;}
	.st37{clip-path:url(#SVGID_31_);fill:none;stroke:#000000;stroke-width:0.5;stroke-miterlimit:10;}
	.st38{clip-path:url(#SVGID_33_);fill:#0DAFA5;}
	.st39{clip-path:url(#SVGID_33_);fill:none;stroke:#B2CE37;stroke-width:0.5;stroke-miterlimit:10;}
	.st40{clip-path:url(#SVGID_35_);fill:#272428;}
	.st41{clip-path:url(#SVGID_35_);fill:none;stroke:#5DBF8D;stroke-width:0.5;stroke-miterlimit:10;}
	.st42{fill:#F7B889;}
	.st43{opacity:0.37;fill:#F8AD77;}
	.st44{opacity:0.79;fill:#FBBD8E;}
	.st45{opacity:0.4;fill:#F89E75;}
	.st46{fill:none;stroke:#F15E58;stroke-width:5;stroke-linecap:round;stroke-linejoin:round;stroke-miterlimit:10;}
	.st47{fill:#5D5E5E;}
	.st48{fill:#191919;}
	.st49{fill:#282828;}
	.st50{fill:url(#SVGID_38_);}
	.st51{fill:url(#SVGID_39_);}
	.st52{fill:#050505;}
	.st53{fill-rule:evenodd;clip-rule:evenodd;fill:#050505;}
	.st54{fill:none;stroke:#692C90;stroke-width:3;stroke-miterlimit:10;}
	.st55{fill:none;stroke:#EC3F38;stroke-width:3;stroke-miterlimit:10;}
	.st56{fill:none;stroke:#B1CF38;stroke-width:3;stroke-miterlimit:10;}
	.st57{fill:none;stroke:#16ACA8;stroke-width:3;stroke-miterlimit:10;}
	.st58{opacity:0.8;}
	.st59{fill:#FFFFFF;stroke:#FFFFFF;stroke-width:8;stroke-miterlimit:10;}
	.st60{fill:none;stroke:#F1592B;stroke-width:3;stroke-miterlimit:10;}
	.st61{fill:none;stroke:#E7D819;stroke-width:3;stroke-miterlimit:10;}
	.st62{fill:none;stroke:#5FBE76;stroke-width:3;stroke-miterlimit:10;}
	.st63{clip-path:url(#SVGID_41_);}
	.st64{fill:none;stroke:#B1CF38;stroke-miterlimit:10;}
	.st65{clip-path:url(#SVGID_43_);}
	.st66{fill:url(#SVGID_44_);}
	.st67{clip-path:url(#SVGID_46_);}
	.st68{clip-path:url(#SVGID_48_);fill:#27303F;}
	.st69{clip-path:url(#SVGID_48_);}
	.st70{fill:none;stroke:url(#SVGID_49_);stroke-miterlimit:10;}
	.st71{fill:none;stroke:url(#SVGID_50_);stroke-miterlimit:10;}
	.st72{fill:none;stroke:url(#SVGID_51_);stroke-miterlimit:10;}
	.st73{fill:none;stroke:url(#SVGID_52_);stroke-miterlimit:10;}
	.st74{fill:none;stroke:url(#SVGID_53_);stroke-miterlimit:10;}
	.st75{fill:none;stroke:url(#SVGID_54_);stroke-miterlimit:10;}
	.st76{fill:none;stroke:url(#SVGID_55_);stroke-miterlimit:10;}
	.st77{fill:none;stroke:url(#SVGID_56_);stroke-miterlimit:10;}
	.st78{fill:#F16475;}
	.st79{fill:#F8A586;}
	.st80{fill:none;stroke:url(#SVGID_57_);stroke-miterlimit:10;}
	.st81{fill:#383F52;}
	.st82{fill:#636A7C;}
	.st83{fill:#444D5E;}
	.st84{fill:none;stroke:url(#SVGID_58_);stroke-width:0.75;stroke-miterlimit:10;}
	.st85{fill:none;stroke:url(#SVGID_59_);stroke-width:2;stroke-miterlimit:10;}
	.st86{fill:none;stroke:url(#SVGID_60_);stroke-width:0.75;stroke-miterlimit:10;}
	.st87{clip-path:url(#SVGID_70_);}
	.st88{clip-path:url(#SVGID_74_);}
	.st89{fill:none;stroke:url(#SVGID_77_);stroke-width:0.75;stroke-miterlimit:10;}
	.st90{fill:none;stroke:url(#SVGID_78_);stroke-width:0.75;stroke-miterlimit:10;}
	.st91{fill:none;stroke:url(#SVGID_79_);stroke-width:0.75;stroke-miterlimit:10;}
	.st92{fill:none;stroke:url(#SVGID_80_);stroke-width:0.75;stroke-miterlimit:10;}
	.st93{fill:#C7C6C5;}
	.st94{fill:none;stroke:#C7C6C5;stroke-width:0.15;stroke-linecap:round;stroke-linejoin:round;stroke-miterlimit:10;}
	.st95{fill:none;stroke:#C7C6C5;stroke-width:0.15;stroke-miterlimit:10;}
	.st96{fill:#101934;}
	.st97{fill:#101934;stroke:#101934;stroke-width:0.25;stroke-linecap:round;stroke-linejoin:round;stroke-miterlimit:10;}
	.st98{fill:#101934;stroke:#101934;stroke-width:0.5;stroke-miterlimit:10;}
	.st99{fill:none;stroke:#101934;stroke-width:0.5;stroke-linecap:round;stroke-linejoin:round;stroke-miterlimit:10;}
	.st100{fill:#101934;stroke:#101933;stroke-width:0.15;stroke-linecap:round;stroke-linejoin:round;stroke-miterlimit:10;}
	.st101{fill:none;stroke:#101934;stroke-width:0.25;stroke-miterlimit:10;}
	.st102{fill:url(#SVGID_83_);stroke:url(#SVGID_84_);stroke-linecap:round;stroke-linejoin:round;stroke-miterlimit:10;}
	.st103{fill:none;stroke:url(#SVGID_85_);stroke-linecap:round;stroke-linejoin:round;stroke-miterlimit:10;}
	.st104{fill:url(#SVGID_86_);}
	.st105{fill-rule:evenodd;clip-rule:evenodd;fill:url(#SVGID_87_);}
	.st106{fill:url(#SVGID_88_);}
	.st107{fill:url(#SVGID_89_);}
	.st108{fill:url(#SVGID_90_);}
	.st109{fill-rule:evenodd;clip-rule:evenodd;fill:url(#SVGID_91_);}
	.st110{fill:url(#SVGID_92_);}
	.st111{fill:url(#SVGID_93_);}
	.st112{fill-rule:evenodd;clip-rule:evenodd;fill:url(#SVGID_94_);}
	.st113{fill:url(#SVGID_95_);}
	.st114{fill:none;stroke:url(#SVGID_96_);stroke-miterlimit:10;}
	.st115{fill:url(#SVGID_97_);stroke:url(#SVGID_98_);stroke-linecap:round;stroke-linejoin:round;stroke-miterlimit:10;}
	.st116{fill:url(#SVGID_99_);stroke:url(#SVGID_100_);stroke-linecap:round;stroke-linejoin:round;stroke-miterlimit:10;}
	.st117{fill:url(#SVGID_101_);stroke:url(#SVGID_102_);stroke-miterlimit:10;}
	.st118{fill:url(#SVGID_103_);stroke:url(#SVGID_104_);stroke-linecap:round;stroke-linejoin:round;stroke-miterlimit:10;}
	.st119{fill:none;stroke:url(#SVGID_105_);stroke-miterlimit:10;}
	.st120{fill:none;stroke:url(#SVGID_106_);stroke-miterlimit:10;}
	.st121{fill:url(#SVGID_107_);stroke:url(#SVGID_108_);stroke-linecap:round;stroke-linejoin:round;stroke-miterlimit:10;}
	.st122{fill:none;stroke:url(#SVGID_109_);stroke-miterlimit:10;}
	.st123{fill:none;stroke:url(#SVGID_110_);stroke-miterlimit:10;}
	.st124{fill:none;stroke:url(#SVGID_111_);stroke-miterlimit:10;}
	.st125{fill:none;stroke:url(#SVGID_112_);stroke-linecap:round;stroke-linejoin:round;stroke-miterlimit:10;}
	.st126{fill:none;stroke:url(#SVGID_113_);stroke-linecap:round;stroke-linejoin:round;stroke-miterlimit:10;}
	.st127{fill:url(#SVGID_114_);}
	.st128{fill:none;stroke:url(#SVGID_115_);stroke-linecap:round;stroke-linejoin:round;stroke-miterlimit:10;}
	.st129{fill:none;stroke:url(#SVGID_116_);stroke-linecap:round;stroke-linejoin:round;stroke-miterlimit:10;}
	.st130{fill:url(#SVGID_117_);}
	.st131{clip-path:url(#SVGID_119_);}
	.st132{fill:#101934;stroke:#101934;stroke-width:0.75;stroke-miterlimit:10;}
	.st133{fill:none;stroke:#101934;stroke-width:0.75;stroke-linecap:round;stroke-linejoin:round;stroke-miterlimit:10;}
	.st134{fill:none;stroke:#C7C6C5;stroke-width:0.75;stroke-linecap:round;stroke-linejoin:round;stroke-miterlimit:10;}
	.st135{fill:none;stroke:#C7C6C5;stroke-width:0.75;stroke-miterlimit:10;}
	.st136{opacity:0.2;}
	.st137{fill:url(#SVGID_126_);}
	.st138{fill-rule:evenodd;clip-rule:evenodd;fill:url(#SVGID_127_);}
	.st139{fill:url(#SVGID_128_);}
	.st140{fill:url(#SVGID_129_);}
	.st141{fill:none;stroke:url(#SVGID_130_);stroke-linecap:round;stroke-linejoin:round;stroke-miterlimit:10;}
	.st142{fill:none;stroke:url(#SVGID_131_);stroke-linecap:round;stroke-linejoin:round;stroke-miterlimit:10;}
</style>
<g id="Layer_2">
</g>
<g id="Layer_3">
</g>
<g id="Layer_1">
	<g>
		<linearGradient id="SVGID_1_" gradientUnits="userSpaceOnUse" x1="4.5368" y1="20.1119" x2="39.105" y2="20.1119">
			<stop  offset="0" style="stop-color:#F16475"/>
			<stop  offset="5.674022e-02" style="stop-color:#F16976"/>
			<stop  offset="0.6936" style="stop-color:#F69481"/>
			<stop  offset="1" style="stop-color:#F8A486"/>
		</linearGradient>
		<path class="st8" d="M21.8,2.8c4.8,0,9.1,1.9,12.2,5.1c3.1,3.1,5.1,7.4,5.1,12.2c0,4.8-1.9,9.1-5.1,12.2
			c-3.1,3.1-7.4,5.1-12.2,5.1s-9.1-1.9-12.2-5.1c-3.1-3.1-5.1-7.4-5.1-12.2c0-4.8,1.9-9.1,5.1-12.2C12.7,4.8,17,2.8,21.8,2.8
			L21.8,2.8z M33.1,8.8C30.2,6,26.2,4.2,21.8,4.2S13.4,6,10.6,8.8c-2.9,2.9-4.7,6.9-4.7,11.3c0,4.4,1.8,8.4,4.7,11.3
			c2.9,2.9,6.9,4.7,11.3,4.7s8.4-1.8,11.3-4.7c2.9-2.9,4.7-6.9,4.7-11.3C37.8,15.7,36,11.7,33.1,8.8L33.1,8.8z"/>
		<linearGradient id="SVGID_3_" gradientUnits="userSpaceOnUse" x1="12.2565" y1="26.2436" x2="31.3853" y2="26.2436">
			<stop  offset="0" style="stop-color:#F16475"/>
			<stop  offset="5.674022e-02" style="stop-color:#F16976"/>
			<stop  offset="0.6936" style="stop-color:#F69481"/>
			<stop  offset="1" style="stop-color:#F8A486"/>
		</linearGradient>
		<path style="fill:url(#SVGID_3_);" d="M25.6,34.2c0-1.2-0.4-2.1-1.3-2.7c0.5-0.1,1-0.1,1.5-0.2c0.4-0.1,0.9-0.2,1.4-0.4
			c0.5-0.2,0.9-0.4,1.3-0.6c0.4-0.2,0.8-0.5,1.1-0.9c0.4-0.4,0.7-0.8,0.9-1.3c0.2-0.5,0.4-1.1,0.6-1.7c0.1-0.7,0.2-1.4,0.2-2.2
			c0-1.6-0.5-2.9-1.5-4c0.5-1.2,0.4-2.5-0.2-4l-0.4,0c-0.3,0-0.7,0.1-1.4,0.3c-0.7,0.3-1.5,0.7-2.3,1.2c-1.2-0.3-2.5-0.5-3.8-0.5
			c-1.3,0-2.6,0.2-3.7,0.5c-0.5-0.4-1-0.7-1.5-0.9c-0.5-0.2-0.9-0.4-1.2-0.5c-0.3-0.1-0.6-0.1-0.8-0.2c-0.2,0-0.4,0-0.5,0
			c-0.1,0-0.1,0-0.2,0c-0.6,1.4-0.6,2.8-0.2,4c-1,1.1-1.5,2.4-1.5,4c0,0.8,0.1,1.6,0.2,2.2c0.1,0.7,0.3,1.3,0.6,1.7
			c0.2,0.5,0.5,0.9,0.9,1.3c0.4,0.4,0.7,0.7,1.1,0.9c0.4,0.2,0.8,0.4,1.3,0.6c0.5,0.2,1,0.3,1.4,0.4c0.4,0.1,0.9,0.2,1.5,0.2
			C18.4,32.1,18,33,18,34.2v2.2l7.6,0V34.2z"/>
	</g>
</g>
</svg>
